<?xml version="1.0" standalone="no"?>
<!DOCTYPE svg PUBLIC "-//W3C//DTD SVG 20010904//EN"
 "http://www.w3.org/TR/2001/REC-SVG-20010904/DTD/svg10.dtd">
<svg version="1.0" xmlns="http://www.w3.org/2000/svg"
 width="1316.000000pt" height="698.000000pt" viewBox="0 0 1316.000000 698.000000"
 preserveAspectRatio="xMidYMid meet">

<g transform="translate(0.000000,698.000000) scale(0.100000,-0.100000)"
fill="#000000" stroke="none">
<path d="M8202 4645 c-48 -55 -75 -109 -102 -207 -29 -105 -28 -115 18 -123
46 -7 163 10 172 26 4 6 10 33 13 61 13 105 82 207 155 228 133 37 249 -31
268 -156 l6 -44 103 0 103 0 -5 43 c-8 63 -39 137 -74 180 l-30 37 -294 0
-293 0 -40 -45z"/>
<path d="M7473 4663 c-4 -1 -127 -9 -273 -17 l-265 -15 -23 -28 c-44 -52 -89
-128 -115 -193 l-26 -65 27 -8 c25 -8 47 -11 152 -20 19 -2 47 -7 61 -11 24
-7 27 -4 32 23 11 52 55 136 93 175 19 20 59 49 87 64 47 24 62 27 157 27 95
0 110 -3 155 -27 28 -14 67 -44 87 -65 36 -38 98 -153 98 -184 0 -13 17 -17
90 -23 49 -4 113 -4 140 0 51 7 51 7 44 38 -22 104 -77 208 -152 289 l-46 49
-157 -4 c-87 -2 -161 -4 -166 -5z"/>
<path d="M8990 4518 l0 -155 37 -6 c21 -4 54 -1 75 5 l38 11 0 144 0 143 -44
0 c-24 0 -58 3 -75 6 l-31 7 0 -155z"/>
<path d="M9257 4594 c-8 -27 -18 -64 -21 -81 l-5 -33 89 -2 c50 -1 100 -2 112
-2 18 -1 24 7 31 37 5 22 24 54 43 72 19 19 30 36 26 38 -4 3 -64 8 -133 12
l-127 7 -15 -48z"/>
<path d="M12780 4615 c-91 -13 -167 -23 -170 -22 -3 0 -18 -2 -35 -6 -16 -3
-52 -9 -79 -12 -65 -7 -68 -12 -9 -19 26 -4 79 -15 118 -25 48 -14 73 -16 82
-9 7 5 17 7 23 3 5 -3 16 -3 23 2 6 4 21 9 32 10 19 2 58 9 100 18 11 3 32 7
47 10 16 3 40 8 55 11 16 3 36 6 46 7 23 2 22 9 -6 35 -28 26 -19 26 -227 -3z"/>
<path d="M6520 4609 c-19 -4 -64 -10 -100 -13 -36 -3 -144 -15 -240 -28 l-174
-22 88 -13 c109 -16 169 -43 202 -93 26 -39 51 -49 149 -56 22 -2 60 -6 85 -8
25 -3 63 -7 85 -9 22 -2 50 -7 62 -11 30 -10 35 5 22 61 -23 93 -82 187 -121
195 -13 2 -39 1 -58 -3z"/>
<path d="M9802 4594 c25 -52 37 -87 43 -130 6 -51 7 -52 46 -58 22 -4 69 -1
105 5 l64 11 -1 47 c-2 78 -11 104 -40 111 -43 12 -222 23 -217 14z"/>
<path d="M10150 4510 l0 -80 99 0 c54 0 113 -3 130 -6 l32 -7 -3 74 -3 74 -80
7 c-44 4 -101 9 -127 12 l-48 5 0 -79z"/>
<path d="M12388 4553 c6 -2 18 -2 25 0 6 3 1 5 -13 5 -14 0 -19 -2 -12 -5z"/>
<path d="M12250 4534 c-41 -7 -91 -16 -110 -18 -19 -2 -55 -9 -80 -14 -25 -6
-65 -13 -90 -16 -109 -14 -139 -29 -140 -68 0 -17 23 -24 60 -19 8 1 33 4 55
6 48 5 109 13 168 20 23 4 52 7 64 9 12 1 33 17 48 35 27 32 68 57 115 72 41
12 -5 9 -90 -7z"/>
<path d="M5908 4534 c-3 -2 -18 -6 -34 -9 -58 -8 -291 -55 -381 -77 -75 -18
-93 -25 -93 -40 0 -19 15 -24 25 -8 3 5 18 9 33 10 15 0 50 3 77 5 28 3 95 8
150 11 88 6 103 9 122 31 13 13 46 34 74 47 28 13 46 27 41 30 -5 3 -11 3 -14
0z"/>
<path d="M5958 4533 c6 -2 18 -2 25 0 6 3 1 5 -13 5 -14 0 -19 -2 -12 -5z"/>
<path d="M10586 4518 c-21 -34 -41 -96 -33 -104 6 -7 59 -11 199 -17 67 -3 67
-3 79 28 7 16 21 43 32 58 10 16 18 30 16 31 -5 4 -216 26 -251 26 -18 0 -33
-8 -42 -22z"/>
<path d="M11420 4453 c0 -4 5 -21 12 -39 l11 -31 96 -6 c99 -5 181 7 181 27 0
24 -17 33 -66 35 -29 1 -85 6 -125 11 -90 11 -109 12 -109 3z"/>
<path d="M11490 4326 c-32 -10 -35 -14 -32 -43 l3 -33 -213 -1 c-213 -2 -233
-3 -275 -13 -13 -3 -32 -8 -43 -11 -11 -3 -29 -7 -40 -10 -11 -3 -29 -7 -40
-10 -32 -8 -64 -16 -80 -20 -8 -2 -17 -4 -20 -6 -3 -1 -9 -3 -15 -4 -5 -2 -12
-4 -15 -5 -3 -1 -12 -3 -20 -5 -74 -18 -80 -20 -100 -28 -16 -7 -66 -18 -87
-19 -31 -3 -1 -265 43 -376 73 -183 211 -305 389 -343 89 -19 296 -16 375 5
155 42 296 148 354 267 26 54 58 177 49 192 -2 4 -69 7 -147 7 l-144 0 -7 -37
c-11 -60 -53 -139 -90 -172 -50 -44 -130 -64 -229 -59 -90 5 -160 33 -208 85
-59 63 -115 232 -106 324 l3 34 473 3 472 2 0 135 c0 74 -3 135 -7 136 -5 0
-19 3 -33 5 -60 11 -178 11 -210 0z"/>
<path d="M11820 4252 c1 -104 65 -220 156 -283 109 -75 173 -98 464 -164 107
-25 219 -57 248 -71 101 -49 129 -141 78 -251 -46 -98 -150 -147 -316 -148
-84 0 -101 3 -145 27 -91 48 -146 127 -160 226 l-7 52 -173 0 c-151 0 -174 -2
-179 -17 -4 -9 -2 -52 4 -96 33 -240 153 -364 413 -427 283 -70 652 4 810 161
101 101 143 222 135 389 -4 76 -10 106 -32 152 -32 68 -113 146 -189 181 -90
43 -279 104 -456 147 -127 31 -185 51 -227 76 -31 19 -60 31 -66 28 -5 -3 -14
-1 -21 4 -7 5 -19 9 -27 10 -8 0 -31 3 -50 7 -19 4 -44 8 -55 10 -11 2 -33 7
-50 10 -16 3 -39 6 -50 6 -10 0 -25 5 -32 11 -8 6 -16 8 -19 5 -3 -3 -17 -2
-30 3 -24 9 -24 9 -24 -48z"/>
<path d="M2460 2700 l0 -1520 1280 0 1280 0 0 1520 0 1520 -1280 0 -1280 0 0
-1520z m2530 0 l0 -1490 -1250 0 -1250 0 0 1490 0 1490 1250 0 1250 0 0 -1490z"/>
<path d="M3566 4034 c-49 -7 -90 -15 -92 -17 -3 -2 499 -733 516 -751 5 -5 27
-1 53 10 l44 19 -102 370 c-102 370 -102 370 -131 376 -50 11 -195 8 -288 -7z"/>
<path d="M4180 3773 c0 -104 -3 -251 -7 -328 l-6 -141 49 -11 c27 -6 50 -11
50 -10 5 7 184 500 184 506 0 14 -115 93 -192 132 l-78 39 0 -187z"/>
<path d="M3002 3753 c-72 -72 -172 -204 -172 -228 0 -7 866 -351 1038 -412 4
-2 17 15 29 36 l22 39 -414 321 c-228 177 -417 321 -420 321 -2 0 -40 -35 -83
-77z"/>
<path d="M4574 3523 c-28 -38 -90 -118 -137 -179 l-86 -111 32 -31 33 -32 144
101 c184 127 176 119 160 161 -16 42 -82 158 -90 158 -3 0 -28 -30 -56 -67z"/>
<path d="M4607 3128 c-124 -32 -157 -44 -153 -55 3 -8 6 -28 6 -44 l0 -29 175
0 175 0 0 39 c0 78 -12 131 -29 130 -9 0 -87 -19 -174 -41z"/>
<path d="M2690 2803 l0 -208 36 53 c19 29 42 56 50 59 9 3 12 13 9 24 -9 26
12 93 35 114 12 11 37 19 60 19 33 1 43 6 53 26 28 56 111 67 158 20 25 -25
29 -35 24 -62 -7 -38 1 -50 62 -97 l43 -32 322 91 c178 51 324 93 325 94 0 0
-4 25 -9 54 l-11 52 -578 0 -579 0 0 -207z"/>
<path d="M2971 2894 c-20 -15 -23 -22 -17 -60 3 -24 3 -44 0 -44 -3 0 -17 9
-31 20 -31 24 -51 25 -81 4 -17 -11 -22 -25 -22 -58 0 -35 -6 -47 -36 -77 -52
-49 -84 -121 -84 -191 0 -57 0 -58 29 -58 17 0 32 -3 35 -8 2 -4 -11 -45 -29
-92 -48 -121 -47 -128 18 -132 l52 -3 3 -132 3 -133 44 0 45 0 0 76 c0 82 11
114 39 114 32 0 44 -28 49 -111 l5 -79 38 0 39 0 1 58 c0 83 18 127 49 127 31
0 49 -44 49 -127 l1 -58 34 0 34 0 7 78 c11 114 23 138 75 145 70 9 77 44 29
138 -23 44 -30 67 -25 90 4 24 0 35 -19 55 -13 13 -28 24 -33 24 -4 0 -14 29
-21 65 -19 96 -60 173 -119 227 -46 41 -52 50 -52 86 0 64 -56 92 -109 56z
m97 -57 c2 -10 -3 -17 -12 -17 -10 0 -16 9 -16 21 0 24 23 21 28 -4z m-140
-70 c2 -10 -3 -17 -12 -17 -10 0 -16 9 -16 21 0 24 23 21 28 -4z m304 -272 c2
-22 -1 -30 -12 -30 -16 0 -26 46 -15 73 5 15 7 15 15 2 4 -8 10 -28 12 -45z
m78 -106 c0 -10 -4 -19 -10 -19 -5 0 -10 12 -10 26 0 14 4 23 10 19 6 -3 10
-15 10 -26z m50 -149 c12 -22 5 -60 -11 -60 -5 0 -9 18 -9 40 0 45 4 49 20 20z"/>
<path d="M4428 2849 l-17 -29 82 -68 c217 -179 239 -195 248 -181 13 20 49
137 49 159 0 13 -26 28 -107 58 -60 22 -137 52 -173 65 l-66 25 -16 -29z"/>
<path d="M3628 2614 l-278 -195 0 -40 c0 -25 12 -62 35 -106 28 -51 34 -73 29
-97 -7 -38 -29 -56 -65 -56 -47 0 -59 -22 -59 -111 0 -46 4 -79 10 -79 5 0
158 185 340 412 l330 412 -27 28 c-15 15 -29 28 -32 28 -3 0 -131 -88 -283
-196z"/>
<path d="M4293 2723 c-18 -9 -33 -23 -33 -30 0 -18 139 -503 150 -523 6 -11
29 7 105 82 l97 97 -92 133 c-51 73 -111 161 -134 195 -22 35 -45 62 -51 62
-5 0 -25 -8 -42 -16z"/>
<path d="M4058 2688 c-124 -332 -279 -770 -274 -775 10 -11 188 24 291 57 l95
31 -6 342 c-4 188 -7 343 -8 343 0 1 -22 4 -47 8 -34 5 -48 3 -51 -6z"/>
<path d="M2725 1747 c-27 -27 -34 -44 -40 -91 -11 -82 -1 -216 18 -253 35 -66
170 -80 222 -23 9 10 20 40 22 65 l6 45 -42 0 c-37 0 -41 -2 -41 -25 0 -14 -9
-34 -20 -45 -17 -17 -24 -18 -41 -10 -30 17 -39 52 -39 158 0 115 12 147 55
147 24 0 31 -5 39 -32 8 -30 12 -33 49 -33 l40 0 -6 42 c-9 65 -41 88 -124 88
-60 0 -67 -2 -98 -33z"/>
<path d="M3344 1761 c-45 -27 -58 -75 -58 -206 0 -135 15 -175 75 -199 46 -19
70 -20 121 -6 42 12 59 35 68 98 l7 42 -44 0 c-41 0 -43 -2 -43 -28 0 -16 -9
-37 -20 -47 -18 -16 -21 -16 -43 -2 -29 19 -37 54 -36 156 0 98 16 145 48 149
29 4 51 -20 51 -55 0 -21 5 -23 46 -23 43 0 46 2 40 23 -3 12 -6 30 -6 40 0
10 -13 32 -29 48 -26 25 -37 29 -88 29 -40 0 -68 -6 -89 -19z"/>
<path d="M4011 1748 c-5 -18 -31 -109 -56 -203 -25 -93 -48 -176 -50 -182 -3
-9 9 -13 39 -13 l44 0 12 50 12 50 64 0 c45 0 64 -4 64 -12 0 -7 5 -30 11 -50
10 -37 11 -38 56 -38 42 0 45 2 39 23 -3 12 -29 109 -57 215 l-53 192 -57 0
c-56 0 -58 -1 -68 -32z m102 -230 c-4 -8 -83 -11 -83 -4 0 8 31 140 37 161 5
14 13 -6 28 -65 12 -47 20 -88 18 -92z"/>
<path d="M4608 1765 c-36 -20 -48 -44 -48 -98 0 -55 23 -86 97 -133 66 -43 89
-75 74 -103 -25 -46 -91 -28 -91 26 0 21 -4 23 -46 23 l-47 0 6 -42 c3 -25 15
-51 31 -67 22 -22 35 -26 89 -26 111 0 147 30 147 124 0 58 -19 82 -103 130
-59 33 -78 60 -69 93 5 20 44 34 62 23 6 -4 15 -18 20 -31 8 -20 16 -24 51
-24 l42 0 -6 37 c-10 59 -36 77 -114 80 -47 2 -76 -1 -95 -12z"/>
<path d="M5757 4143 c-8 -7 -172 -17 -280 -16 -68 0 -68 0 -62 -25 10 -41 63
-110 117 -152 106 -84 171 -107 583 -204 132 -31 211 -69 243 -116 21 -30 23
-44 19 -100 -9 -141 -91 -212 -278 -241 -39 -6 -92 -8 -118 -4 -140 20 -243
123 -260 258 l-6 52 -180 0 -180 0 -3 -41 c-4 -58 23 -177 57 -250 58 -123
171 -205 356 -256 69 -19 105 -22 255 -22 188 1 247 11 404 71 202 77 312 229
324 446 10 195 -61 325 -218 403 -189 93 -738 233 -773 197z"/>
<path d="M10398 4084 c-4 -3 -14 -7 -25 -9 -10 -2 -18 -4 -18 -5 0 -2 -16 -6
-50 -14 -11 -2 -20 -5 -20 -6 0 -1 -8 -3 -17 -6 -10 -2 -26 -6 -35 -8 -10 -3
-18 -5 -18 -6 0 -2 -38 -11 -52 -12 -10 -1 -13 -72 -13 -320 l0 -318 130 0
130 0 0 355 c0 195 -1 355 -3 355 -2 0 -6 -3 -9 -6z"/>
<path d="M6750 4025 c0 -54 38 -186 77 -265 26 -54 57 -95 112 -150 125 -125
250 -173 446 -173 260 1 433 97 550 306 15 27 24 51 22 54 -3 2 -17 6 -31 9
-36 5 -66 11 -96 19 -36 9 -71 16 -102 18 -23 2 -32 -6 -60 -53 -66 -109 -168
-157 -315 -147 -102 6 -175 38 -231 102 -42 48 -79 133 -89 202 -7 52 -11 55
-78 68 -11 2 -31 7 -45 10 -14 4 -34 8 -45 10 -11 2 -31 7 -45 10 -65 16 -70
14 -70 -20z"/>
<path d="M10047 3973 c-5 -4 -13 -9 -18 -9 -5 -1 -10 -2 -11 -4 -2 -1 -12 -4
-23 -6 -34 -8 -50 -12 -50 -14 0 -2 -16 -6 -50 -14 -11 -2 -21 -5 -22 -6 -2
-2 -7 -4 -13 -5 -5 -1 -11 -3 -12 -5 -2 -1 -12 -4 -23 -6 -34 -8 -50 -12 -50
-14 0 -1 -9 -4 -20 -6 -33 -8 -50 -12 -52 -14 -2 -2 -6 -3 -10 -5 -5 -1 -15
-5 -23 -8 -8 -4 -24 -8 -35 -10 -11 -2 -27 -7 -35 -10 -8 -4 -24 -8 -35 -10
-11 -2 -27 -7 -35 -10 -8 -4 -28 -9 -45 -12 -38 -8 -60 -13 -60 -15 0 -1 -7
-3 -15 -5 -8 -2 -26 -7 -40 -10 -14 -3 -31 -7 -38 -9 -28 -5 -11 -22 44 -45
50 -21 75 -25 159 -24 129 0 198 25 267 94 27 27 51 49 53 49 3 0 5 -22 5 -48
0 -26 5 -53 12 -60 17 -17 187 -16 193 1 7 22 -10 249 -18 240z"/>
<path d="M8440 3791 l-175 -6 51 -22 c130 -57 284 -59 407 -6 75 33 -12 43
-283 34z"/>
<path d="M7460 3093 l0 -156 -24 22 c-13 12 -46 29 -72 37 -100 30 -191 -20
-219 -121 -34 -122 -26 -325 16 -412 49 -101 184 -121 274 -42 l35 31 0 -36
c0 -34 1 -36 35 -36 l35 0 0 435 0 435 -40 0 -40 0 0 -157z m-50 -181 c42 -42
52 -97 48 -247 -4 -141 -15 -180 -64 -212 -35 -23 -108 -21 -135 3 -38 33 -51
83 -57 204 -6 139 8 217 45 254 21 22 35 26 80 26 47 0 59 -4 83 -28z"/>
<path d="M8502 2818 l3 -433 35 0 35 0 3 433 2 432 -40 0 -40 0 2 -432z"/>
<path d="M8776 3233 c-3 -10 -14 -60 -25 -110 l-18 -93 31 0 c31 0 32 1 64 98
18 54 32 103 32 110 0 7 -15 12 -39 12 -29 0 -41 -5 -45 -17z"/>
<path d="M11511 3236 c-20 -24 -5 -65 26 -72 35 -9 66 26 54 59 -10 27 -62 35
-80 13z"/>
<path d="M9181 3146 c-33 -41 -61 -77 -61 -80 0 -3 12 -6 28 -6 20 1 49 21
112 80 l85 79 -51 1 -51 0 -62 -74z"/>
<path d="M7807 2996 c-110 -30 -142 -102 -142 -321 0 -132 3 -156 21 -196 26
-57 67 -86 138 -101 64 -14 150 1 191 33 31 25 56 71 65 122 l7 37 -38 0 c-36
0 -39 -2 -49 -41 -14 -51 -38 -75 -88 -89 -102 -27 -171 48 -172 187 l0 43
173 2 172 3 -2 80 c-5 156 -45 223 -143 244 -62 13 -72 13 -133 -3z m137 -67
c33 -15 57 -68 63 -140 l6 -59 -138 0 -138 0 6 65 c7 71 28 118 61 134 29 13
110 13 140 0z"/>
<path d="M9133 3001 c-57 -15 -96 -45 -123 -96 -23 -45 -25 -62 -28 -200 -4
-167 4 -217 44 -265 42 -49 80 -64 164 -64 60 0 83 4 116 23 45 26 78 75 89
134 l7 37 -41 0 c-36 0 -41 -3 -41 -22 0 -30 -33 -84 -60 -98 -31 -17 -103
-17 -133 -1 -35 19 -64 82 -72 159 l-7 62 176 0 176 0 0 65 c0 131 -34 215
-100 247 -42 21 -124 30 -167 19z m129 -72 c29 -16 58 -86 58 -146 l0 -53
-135 0 -136 0 7 53 c14 123 43 157 131 157 30 0 63 -5 75 -11z"/>
<path d="M9705 2998 c-16 -6 -45 -24 -62 -41 l-33 -31 0 32 c0 31 -2 32 -40
32 l-40 0 2 -302 3 -303 35 0 35 0 5 235 c3 161 9 242 17 257 37 64 127 85
178 41 38 -33 44 -79 45 -320 l0 -218 35 0 36 0 -3 264 c-3 249 -4 266 -24
292 -11 15 -31 36 -45 45 -31 23 -105 31 -144 17z"/>
<path d="M10195 2995 c-35 -9 -59 -24 -81 -49 -47 -55 -59 -110 -59 -276 0
-164 15 -218 73 -259 74 -53 216 -50 282 6 38 31 48 51 59 108 l8 45 -38 0
c-36 0 -39 -2 -49 -41 -21 -76 -91 -112 -167 -86 -60 20 -92 84 -93 184 l0 43
173 2 172 3 -2 80 c-5 155 -45 223 -143 244 -62 13 -72 13 -135 -4z m138 -66
c36 -16 57 -61 64 -134 l6 -65 -137 0 -136 0 0 36 c0 111 47 174 130 174 27 0
60 -5 73 -11z"/>
<path d="M10797 2998 c-21 -6 -53 -25 -72 -43 l-35 -32 0 33 c0 33 -1 34 -40
34 l-40 0 2 -302 3 -303 35 0 35 0 5 225 c4 194 8 230 23 253 24 37 59 58 107
64 40 6 41 7 38 41 -3 41 -9 43 -61 30z"/>
<path d="M11058 2998 c-47 -13 -103 -73 -119 -130 -7 -24 -13 -101 -13 -173 0
-148 16 -214 63 -259 62 -60 181 -60 246 0 l28 25 -5 -89 c-5 -106 -20 -136
-77 -153 -76 -23 -161 17 -161 76 0 23 -4 25 -40 25 -34 0 -40 -3 -40 -20 0
-31 25 -83 51 -106 75 -67 254 -52 311 26 31 43 39 141 36 465 l-3 310 -35 0
c-31 0 -35 -3 -38 -28 l-3 -28 -30 25 c-29 25 -89 47 -119 45 -8 -1 -32 -6
-52 -11z m132 -73 c45 -23 63 -68 68 -167 9 -185 -16 -268 -90 -296 -31 -12
-43 -12 -79 -1 -63 21 -81 63 -87 198 -8 194 28 281 118 281 22 0 54 -7 70
-15z"/>
<path d="M11881 2995 c-56 -18 -96 -56 -118 -114 -15 -37 -18 -77 -18 -206 0
-146 2 -164 22 -202 30 -55 63 -79 130 -94 64 -15 151 -2 193 29 31 23 70 97
70 134 0 26 -3 28 -40 28 -36 0 -40 -2 -40 -26 0 -63 -57 -109 -132 -108 -77
2 -118 56 -126 166 l-5 68 173 0 172 0 -4 103 c-5 123 -27 176 -86 206 -52 26
-137 34 -191 16z m147 -71 c32 -22 50 -62 58 -132 l7 -62 -137 0 -136 0 0 43
c0 62 18 116 47 143 21 19 37 24 82 24 35 0 65 -6 79 -16z"/>
<path d="M11510 2684 l0 -305 38 3 37 3 3 303 2 302 -40 0 -40 0 0 -306z"/>
<path d="M2776 1104 c-35 -34 -11 -114 34 -114 10 0 22 4 25 10 3 6 -1 7 -10
4 -21 -8 -55 23 -55 51 0 28 34 59 55 51 9 -3 13 -2 10 4 -9 15 -42 12 -59 -6z"/>
<path d="M3316 1098 c-9 -12 -16 -33 -16 -45 0 -23 32 -63 49 -63 18 0 41 12
41 21 0 5 -9 4 -20 -3 -16 -10 -23 -10 -36 4 -33 32 -11 105 28 95 10 -3 16
-1 12 4 -10 17 -43 9 -58 -13z"/>
<path d="M4660 1109 c0 -5 5 -7 10 -4 6 3 10 8 10 11 0 2 -4 4 -10 4 -5 0 -10
-5 -10 -11z"/>
<path d="M3823 1055 c0 -33 2 -45 4 -27 2 18 2 45 0 60 -2 15 -4 0 -4 -33z"/>
<path d="M4072 1098 c-1 -10 -7 -18 -12 -18 -7 0 -7 -6 0 -20 11 -21 -2 -60
-20 -60 -18 0 -31 39 -20 60 7 13 7 20 1 20 -17 0 -24 -46 -11 -70 9 -17 17
-20 38 -15 15 4 28 8 30 10 2 1 1 27 -1 56 -2 30 -4 46 -5 37z"/>
<path d="M4157 1063 c-19 -53 -22 -83 -5 -43 6 14 12 31 14 39 7 35 23 32 34
-7 9 -35 30 -67 30 -46 0 20 -36 104 -45 104 -6 0 -19 -21 -28 -47z"/>
<path d="M4338 1094 c-7 -37 4 -104 17 -104 8 0 17 5 20 10 4 6 1 9 -7 8 -9
-2 -13 11 -14 45 -2 50 -10 71 -16 41z"/>
<path d="M4568 1094 c-7 -37 4 -104 17 -104 8 0 17 5 20 10 4 6 1 9 -7 8 -9
-2 -13 11 -14 45 -2 50 -10 71 -16 41z"/>
<path d="M3599 1089 c-5 -70 11 -113 34 -90 10 10 9 12 -3 9 -11 -2 -15 7 -16
40 -1 40 -13 72 -15 41z"/>
<path d="M2916 1065 c4 -9 0 -15 -7 -15 -12 0 -12 -2 0 -9 17 -11 7 -45 -12
-38 -6 2 -11 12 -11 21 2 18 -11 22 -22 5 -10 -18 21 -42 45 -34 17 5 21 14
21 46 0 21 -4 39 -10 39 -5 0 -7 -7 -4 -15z"/>
<path d="M2963 1040 c0 -25 2 -35 4 -22 2 12 2 32 0 45 -2 12 -4 2 -4 -23z"/>
<path d="M3000 1062 c0 -11 12 -24 26 -30 28 -13 23 -37 -7 -29 -11 3 -17 1
-13 -4 9 -15 44 -10 51 7 4 11 -3 23 -20 36 -15 11 -25 24 -21 29 3 5 0 9 -5
9 -6 0 -11 -8 -11 -18z"/>
<path d="M3080 1062 c0 -11 12 -24 26 -30 29 -14 22 -36 -9 -28 -14 3 -17 2
-10 -5 15 -15 47 -7 51 14 2 10 -6 21 -23 29 -15 7 -24 17 -21 25 3 7 1 13 -4
13 -6 0 -10 -8 -10 -18z"/>
<path d="M3167 1073 c-13 -12 -7 -60 8 -73 11 -10 21 -10 38 -2 21 10 20 10
-8 9 -26 -2 -30 2 -31 23 0 14 4 31 9 38 10 13 -4 18 -16 5z"/>
<path d="M3207 1068 c7 -8 10 -18 6 -21 -3 -4 -1 -7 6 -7 17 0 10 32 -9 38
-12 4 -13 3 -3 -10z"/>
<path d="M3417 1073 c-11 -11 -8 -58 5 -71 7 -7 19 -12 27 -12 11 0 9 5 -7 15
-21 16 -24 37 -9 63 8 12 -5 17 -16 5z"/>
<path d="M3457 1068 c7 -8 10 -18 6 -21 -3 -4 -1 -7 6 -7 17 0 10 32 -9 38
-12 4 -13 3 -3 -10z"/>
<path d="M3509 1037 c5 -37 6 -39 9 -12 2 17 8 35 12 40 6 7 2 11 -8 12 -15 1
-17 -5 -13 -40z"/>
<path d="M3558 1040 c2 -22 6 -40 8 -40 2 0 4 18 4 40 0 22 -3 40 -8 40 -4 0
-6 -18 -4 -40z"/>
<path d="M3661 1035 c1 -41 3 -40 13 7 3 14 14 29 24 31 9 3 5 4 -10 4 -26 -1
-28 -4 -27 -42z"/>
<path d="M3776 1069 c3 -6 0 -15 -7 -20 -11 -7 -11 -9 -1 -9 9 0 11 -7 7 -20
-4 -11 -2 -20 4 -20 6 0 11 18 11 40 0 22 -5 40 -11 40 -5 0 -7 -5 -3 -11z"/>
<path d="M3867 1073 c-24 -23 6 -91 35 -80 8 4 7 6 -4 6 -10 1 -19 7 -20 14
-4 36 -3 43 5 55 10 13 -4 18 -16 5z"/>
<path d="M3907 1068 c7 -8 10 -18 6 -21 -3 -4 -1 -7 6 -7 17 0 10 32 -9 38
-12 4 -13 3 -3 -10z"/>
<path d="M4254 1055 c-11 -45 22 -83 49 -56 9 9 8 11 -4 6 -26 -10 -44 21 -31
50 7 15 8 25 2 25 -5 0 -12 -11 -16 -25z"/>
<path d="M4403 1040 c0 -25 2 -35 4 -22 2 12 2 32 0 45 -2 12 -4 2 -4 -23z"/>
<path d="M4444 1043 c12 -35 36 -57 36 -34 0 6 -4 11 -9 11 -5 0 -12 14 -16
30 -4 17 -10 30 -15 30 -5 0 -3 -17 4 -37z"/>
<path d="M4624 1056 c-3 -13 -1 -34 6 -45 11 -21 44 -29 54 -13 3 5 -5 8 -17
8 -19 -1 -22 4 -22 37 0 42 -12 49 -21 13z"/>
<path d="M4677 1060 c3 -11 7 -20 9 -20 2 0 4 9 4 20 0 11 -4 20 -9 20 -5 0
-7 -9 -4 -20z"/>
<path d="M4720 1061 c0 -11 9 -23 20 -26 28 -9 27 -39 -1 -32 -16 4 -19 3 -11
-5 6 -6 18 -8 26 -5 23 9 20 44 -5 52 -12 4 -18 12 -15 21 3 8 1 14 -4 14 -6
0 -10 -9 -10 -19z"/>
<path d="M3724 1025 c-7 -19 3 -35 23 -35 12 0 13 3 3 15 -6 8 -9 19 -5 25 3
5 1 10 -5 10 -6 0 -13 -7 -16 -15z"/>
<path d="M2367 903 c-16 -15 -5 -43 21 -55 15 -7 27 -20 27 -28 0 -10 -10 -15
-27 -15 -16 1 -28 -3 -28 -8 0 -4 15 -7 33 -5 26 2 33 8 35 29 2 21 -3 29 -27
39 -34 14 -37 20 -19 38 7 7 8 12 2 12 -6 0 -14 -3 -17 -7z"/>
<path d="M2400 906 c0 -2 7 -6 15 -10 8 -3 15 -1 15 4 0 6 -7 10 -15 10 -8 0
-15 -2 -15 -4z"/>
<path d="M2783 850 c0 -36 2 -50 4 -32 2 17 2 47 0 65 -2 17 -4 3 -4 -33z"/>
<path d="M3101 895 c-1 -16 -8 -21 -28 -20 -26 0 -28 -3 -28 -40 0 -39 1 -40
35 -40 l35 -1 -3 46 c-4 54 -9 83 -11 55z m-6 -60 c0 -23 -4 -30 -20 -30 -21
0 -31 25 -21 51 11 28 41 12 41 -21z"/>
<path d="M3295 850 c0 -33 3 -60 8 -60 4 0 7 11 7 24 0 18 7 25 31 30 26 5 30
10 27 33 -3 24 -8 28 -38 31 l-35 3 0 -61z m60 25 c0 -13 -8 -21 -22 -23 -19
-3 -23 1 -23 23 0 22 4 26 23 23 14 -2 22 -10 22 -23z"/>
<path d="M4023 850 c0 -36 2 -50 4 -32 2 17 2 47 0 65 -2 17 -4 3 -4 -33z"/>
<path d="M4170 892 c0 -13 -8 -18 -27 -17 -26 0 -28 -3 -28 -40 0 -38 1 -40
33 -41 l32 -1 0 59 c0 32 -2 58 -5 58 -3 0 -5 -8 -5 -18z m-5 -57 c0 -23 -4
-30 -20 -30 -21 0 -31 25 -21 51 11 28 41 12 41 -21z"/>
<path d="M4443 850 c0 -36 2 -50 4 -32 2 17 2 47 0 65 -2 17 -4 3 -4 -33z"/>
<path d="M4640 892 c0 -13 -8 -18 -27 -17 -26 0 -28 -3 -28 -40 0 -38 1 -40
33 -41 l32 -1 0 59 c0 32 -2 58 -5 58 -3 0 -5 -8 -5 -18z m-5 -57 c0 -23 -4
-30 -20 -30 -21 0 -31 25 -21 51 11 28 41 12 41 -21z"/>
<path d="M4859 891 c-2 -6 -3 -32 -1 -56 3 -36 8 -45 23 -45 10 0 19 5 19 10
0 6 -6 9 -12 8 -8 -2 -14 10 -16 30 -3 25 1 32 15 33 14 0 15 2 3 6 -8 3 -18
10 -21 16 -4 5 -8 5 -10 -2z"/>
<path d="M2464 867 c-3 -9 -4 -28 -2 -44 3 -24 7 -28 33 -28 28 0 30 2 30 40
0 36 -3 40 -28 43 -17 2 -29 -2 -33 -11z m51 -32 c0 -23 -4 -30 -20 -30 -21 0
-31 25 -21 51 11 28 41 12 41 -21z"/>
<path d="M2564 866 c-11 -28 1 -71 20 -74 10 -2 22 0 27 5 6 6 1 9 -13 9 -34
-1 -39 50 -6 63 l23 10 -23 0 c-12 1 -25 -5 -28 -13z"/>
<path d="M2641 838 c-1 -27 3 -48 7 -48 4 0 6 17 4 38 -5 58 -10 62 -11 10z"/>
<path d="M2705 873 c36 -9 37 -20 5 -32 -43 -15 -38 -46 8 -47 33 -1 33 0 30
40 -3 38 -5 41 -33 43 -18 1 -22 -1 -10 -4z m35 -40 c-1 -21 -19 -35 -36 -29
-18 7 -18 8 0 22 22 15 36 18 36 7z"/>
<path d="M2824 866 c-3 -8 -4 -27 -2 -43 2 -23 8 -28 33 -30 28 -2 28 -1 5 5
-19 6 -25 15 -25 37 0 20 6 31 18 33 10 2 17 -3 17 -12 0 -9 5 -16 10 -16 14
0 13 13 -2 28 -16 16 -47 15 -54 -2z"/>
<path d="M2910 859 c0 -12 8 -23 20 -26 27 -7 25 -30 -2 -36 -16 -4 -13 -5 7
-4 40 3 47 33 11 47 -31 11 -35 35 -6 27 11 -3 20 -1 20 4 0 5 -11 9 -25 9
-19 0 -25 -5 -25 -21z"/>
<path d="M3200 856 c0 -13 -3 -31 -6 -40 -7 -19 -30 -21 -37 -3 -3 7 -6 5 -6
-6 -1 -13 6 -17 29 -15 28 2 30 5 30 45 0 24 -2 43 -5 43 -3 0 -5 -11 -5 -24z"/>
<path d="M3400 859 c-17 -31 2 -69 35 -69 14 0 25 4 25 8 0 5 -10 8 -22 8 -19
-1 -24 5 -26 32 -3 26 0 32 17 32 11 0 22 -8 25 -17 4 -14 4 -14 3 2 -3 29
-43 32 -57 4z"/>
<path d="M3492 830 c1 -36 2 -39 5 -13 3 19 14 39 26 48 22 15 22 15 -6 13
-25 -2 -27 -5 -25 -48z"/>
<path d="M3554 868 c-4 -6 4 -20 19 -33 33 -25 34 -32 5 -38 -20 -4 -19 -4 5
-6 21 -1 27 4 27 19 0 10 -9 24 -20 30 -11 6 -20 16 -20 22 0 5 9 8 20 5 11
-3 20 -1 20 4 0 13 -48 11 -56 -3z"/>
<path d="M3640 866 c-28 -35 11 -93 48 -70 35 22 22 84 -18 84 -10 0 -23 -7
-30 -14z m55 -15 c14 -44 -24 -67 -48 -29 -8 12 -7 21 2 32 18 21 38 20 46 -3z"/>
<path d="M3735 834 c0 -54 13 -59 17 -7 2 26 8 39 20 41 13 3 18 -6 21 -40 l4
-43 -1 45 c-1 43 -3 45 -31 47 -29 1 -30 0 -30 -43z"/>
<path d="M3831 830 l2 -45 6 40 c4 27 12 41 24 43 14 3 17 -4 17 -37 0 -23 3
-41 8 -41 4 0 6 20 4 45 -4 43 -5 45 -33 43 -28 -2 -29 -4 -28 -48z"/>
<path d="M3924 856 c-9 -38 4 -66 31 -66 13 0 26 4 29 9 3 4 -6 6 -19 3 -14
-2 -25 0 -26 4 0 5 -2 19 -5 32 -5 31 24 42 43 16 14 -19 15 -19 11 1 -2 13
-12 21 -30 23 -22 3 -29 -2 -34 -22z"/>
<path d="M4214 866 c-3 -8 -4 -27 -2 -43 2 -23 8 -28 33 -30 28 -2 28 -1 5 5
-18 6 -25 16 -27 35 -2 35 22 47 43 21 15 -18 15 -18 10 -1 -3 10 -6 21 -6 23
0 11 -51 2 -56 -10z"/>
<path d="M4307 873 c-14 -14 -6 -34 18 -43 14 -5 25 -15 25 -21 0 -7 -10 -9
-25 -7 -14 3 -25 1 -25 -4 0 -5 12 -8 27 -6 38 4 43 35 9 48 -31 11 -35 35 -6
27 11 -3 20 -1 20 4 0 10 -33 12 -43 2z"/>
<path d="M4491 830 l2 -45 6 40 c4 26 12 41 23 43 13 3 18 -6 21 -40 l4 -43 1
48 c2 47 2 47 -28 45 -29 -2 -30 -4 -29 -48z"/>
<path d="M4684 840 c1 -44 2 -45 34 -46 31 -1 32 0 32 43 0 23 -4 43 -9 43 -5
0 -7 -9 -4 -19 6 -24 -14 -64 -30 -58 -7 2 -15 21 -18 43 l-7 39 2 -45z"/>
<path d="M4774 868 c-4 -6 4 -20 19 -33 33 -25 34 -32 5 -38 -20 -4 -19 -4 5
-6 21 -1 27 4 27 19 0 10 -9 24 -20 30 -11 6 -20 16 -20 22 0 5 9 8 20 5 11
-3 20 -1 20 4 0 13 -48 11 -56 -3z"/>
<path d="M4921 830 c1 -25 3 -36 6 -25 2 11 6 30 8 42 3 12 13 24 23 26 9 3 5
4 -10 4 -26 -1 -28 -4 -27 -47z"/>
<path d="M4985 835 c0 -25 3 -45 8 -45 4 0 7 20 7 45 0 25 -3 45 -7 45 -5 0
-8 -20 -8 -45z"/>
<path d="M2975 650 l0 -60 40 2 c35 1 36 2 9 5 -31 4 -32 6 -32 53 0 45 2 49
27 53 21 3 19 4 -9 6 l-35 1 0 -60z"/>
<path d="M3073 650 c0 -36 2 -50 4 -32 2 17 2 47 0 65 -2 17 -4 3 -4 -33z"/>
<path d="M4016 694 c-28 -28 -14 -104 19 -104 11 0 10 5 -5 20 -24 24 -25 38
-4 69 12 16 23 22 40 18 13 -2 21 0 18 4 -9 15 -51 10 -68 -7z"/>
<path d="M4360 700 c0 -5 5 -10 11 -10 5 0 7 5 4 10 -3 6 -8 10 -11 10 -2 0
-4 -4 -4 -10z"/>
<path d="M3288 690 c-1 -5 -2 -31 0 -55 4 -39 7 -45 26 -44 17 1 18 2 3 6 -14
4 -17 14 -16 49 3 42 -5 67 -13 44z"/>
<path d="M3890 647 c0 -53 2 -57 23 -57 20 1 20 2 4 11 -13 8 -17 21 -15 49 1
22 -1 43 -5 46 -4 4 -7 -18 -7 -49z"/>
<path d="M3121 666 c-16 -19 -10 -68 9 -74 12 -4 13 -2 3 9 -20 21 -15 29 17
29 31 0 39 17 18 38 -16 16 -33 15 -47 -2z m47 -13 c2 -8 -6 -13 -22 -13 -25
0 -33 10 -19 24 10 10 36 3 41 -11z"/>
<path d="M3212 668 c-19 -19 -12 -78 9 -78 5 0 4 11 -3 25 -13 28 5 60 29 51
8 -3 11 -1 8 4 -8 14 -28 13 -43 -2z"/>
<path d="M3375 670 c-4 -6 -11 -8 -16 -5 -5 4 -8 -12 -8 -37 2 -34 3 -37 6
-13 5 34 21 57 34 49 5 -3 9 0 9 5 0 14 -17 14 -25 1z"/>
<path d="M3473 672 c-12 -8 -18 -31 -15 -64 3 -34 17 -18 17 19 0 41 19 51 39
21 8 -13 8 -23 -2 -38 -8 -14 -9 -20 -1 -20 6 0 9 -9 6 -20 -3 -11 -1 -20 4
-20 5 0 9 27 9 60 0 33 -4 60 -9 60 -5 0 -15 2 -23 5 -7 3 -19 1 -25 -3z"/>
<path d="M3661 666 c-16 -19 -10 -68 9 -74 12 -4 13 -2 3 9 -20 21 -15 29 17
29 31 0 39 17 18 38 -16 16 -33 15 -47 -2z m47 -13 c2 -8 -6 -13 -22 -13 -19
0 -24 4 -19 15 6 18 34 16 41 -2z"/>
<path d="M3813 672 c-24 -16 -20 -82 5 -81 10 0 12 3 5 6 -26 10 -14 33 17 33
26 0 28 2 21 23 -9 24 -29 32 -48 19z m35 -20 c2 -7 -6 -12 -17 -12 -21 0 -27
11 -14 24 9 9 26 2 31 -12z"/>
<path d="M4136 671 c-4 -5 4 -7 15 -4 20 5 21 3 18 -34 -3 -26 0 -40 8 -40 11
0 10 34 -3 75 -4 14 -30 16 -38 3z"/>
<path d="M4340 659 c-15 -26 -5 -69 16 -69 13 0 13 3 -2 18 -17 16 -16 17 14
20 48 5 40 52 -8 52 -5 0 -14 -9 -20 -21z m48 -7 c2 -7 -6 -12 -17 -12 -21 0
-27 11 -14 24 9 9 26 2 31 -12z"/>
<path d="M4455 670 c-4 -6 -11 -8 -16 -5 -5 4 -8 -12 -8 -37 2 -34 3 -37 6
-13 5 34 21 57 34 49 5 -3 9 0 9 5 0 14 -17 14 -25 1z"/>
<path d="M4500 659 c-13 -23 -5 -69 11 -69 6 0 6 7 -1 20 -10 18 -8 20 20 20
23 0 30 5 30 19 0 17 -18 31 -40 31 -5 0 -14 -9 -20 -21z m48 -7 c2 -7 -7 -12
-23 -12 -24 0 -26 2 -15 15 14 17 31 16 38 -3z"/>
<path d="M3423 630 c0 -25 2 -35 4 -22 2 12 2 32 0 45 -2 12 -4 2 -4 -23z"/>
<path d="M3560 630 c0 -22 3 -40 8 -40 4 0 6 18 4 40 -2 22 -6 40 -8 40 -2 0
-4 -18 -4 -40z"/>
<path d="M3610 642 c0 -15 -5 -33 -11 -39 -9 -9 -7 -12 7 -11 16 2 19 8 16 40
-5 44 -12 51 -12 10z"/>
<path d="M4232 634 c-13 -20 -21 -38 -18 -42 7 -6 7 -7 34 41 27 47 15 48 -16
1z"/>
<path d="M4298 630 c-2 -22 0 -40 4 -40 5 0 8 18 8 40 0 22 -2 40 -4 40 -2 0
-6 -18 -8 -40z"/>
<path d="M4080 621 c0 -11 -6 -22 -12 -24 -8 -3 -6 -6 5 -6 12 -1 17 7 17 24
0 14 -2 25 -5 25 -3 0 -5 -9 -5 -19z"/>
<path d="M4133 633 c-19 -7 -16 -43 3 -43 13 0 14 3 5 14 -10 11 -8 17 6 25
18 11 8 14 -14 4z"/>
<path d="M3165 600 c-3 -5 -1 -10 4 -10 6 0 11 5 11 10 0 6 -2 10 -4 10 -3 0
-8 -4 -11 -10z"/>
<path d="M3705 600 c-3 -5 -1 -10 4 -10 6 0 11 5 11 10 0 6 -2 10 -4 10 -3 0
-8 -4 -11 -10z"/>
<path d="M4570 261 c-5 -11 -10 -29 -10 -41 0 -13 -8 -24 -20 -27 -11 -3 -20
-9 -20 -14 0 -5 9 -9 20 -9 18 0 20 -7 20 -75 0 -60 3 -75 15 -75 12 0 15 15
15 75 0 73 1 75 25 75 14 0 25 5 25 10 0 6 -9 10 -19 10 -26 0 -34 15 -27 46
4 15 14 24 26 24 11 0 20 5 20 10 0 19 -59 11 -70 -9z"/>
<path d="M3814 189 c-26 -13 -44 -50 -44 -90 0 -44 49 -91 92 -87 43 4 49 27
7 26 -22 -1 -38 6 -51 22 -38 47 -8 114 51 112 21 0 31 4 28 11 -5 16 -56 19
-83 6z"/>
<path d="M3975 189 c-33 -19 -45 -41 -45 -84 0 -61 49 -104 106 -93 32 6 27
27 -7 26 -22 -1 -38 6 -51 22 -38 47 -11 110 48 110 24 0 34 4 32 13 -6 16
-58 20 -83 6z"/>
<path d="M4128 193 c-10 -2 -18 -11 -18 -18 0 -10 7 -12 30 -5 23 6 35 4 51
-9 30 -24 17 -41 -30 -41 -62 0 -94 -56 -54 -95 12 -12 26 -15 52 -11 20 4 46
6 59 6 21 0 22 4 22 70 0 57 -4 74 -20 90 -19 19 -52 24 -92 13z m80 -115 c-4
-29 -45 -50 -70 -37 -38 21 -13 59 40 59 29 0 33 -3 30 -22z"/>
<path d="M4301 181 c-34 -34 -26 -58 27 -85 17 -9 32 -23 32 -31 0 -19 -28
-34 -53 -27 -14 3 -18 1 -15 -9 6 -18 51 -23 78 -9 14 8 20 21 20 46 0 29 -5
37 -35 51 -46 22 -47 51 -2 55 41 4 42 22 0 26 -22 2 -38 -3 -52 -17z"/>
<path d="M4730 190 c-8 -5 -23 -7 -32 -4 -16 5 -18 -3 -18 -80 0 -70 3 -86 15
-86 12 0 15 13 15 58 0 62 18 92 53 92 9 0 17 7 17 15 0 17 -27 20 -50 5z"/>
<path d="M2790 186 c0 -3 12 -41 26 -86 22 -71 28 -81 47 -78 17 2 26 17 42
73 12 38 24 65 27 60 3 -6 14 -38 23 -72 15 -53 21 -63 39 -63 18 0 26 12 45
73 13 39 26 78 28 85 3 6 -2 12 -11 12 -10 0 -22 -23 -37 -72 l-22 -73 -23 70
c-18 59 -25 70 -44 70 -19 0 -26 -11 -44 -70 l-22 -70 -18 60 c-24 86 -24 85
-41 85 -8 0 -15 -2 -15 -4z"/>
<path d="M3090 183 c0 -5 11 -42 24 -83 20 -63 28 -75 46 -75 19 0 26 11 44
70 l23 70 23 -72 c20 -60 28 -73 45 -73 17 0 25 14 46 85 22 72 24 86 11 83
-10 -2 -24 -30 -37 -73 l-22 -70 -22 73 c-19 64 -25 73 -44 70 -17 -2 -26 -18
-43 -73 -13 -39 -25 -63 -28 -55 -3 8 -12 41 -21 73 -10 35 -22 57 -31 57 -8
0 -14 -3 -14 -7z"/>
<path d="M3409 108 c22 -66 32 -84 49 -86 18 -3 24 6 42 67 11 39 22 71 24 71
2 0 14 -32 26 -71 18 -61 24 -70 42 -67 16 2 27 19 45 72 26 80 28 96 10 96
-7 0 -21 -29 -32 -70 -11 -38 -22 -67 -25 -62 -4 4 -15 35 -25 70 -15 52 -22
62 -40 62 -19 0 -25 -10 -40 -65 -10 -36 -21 -68 -25 -70 -3 -2 -14 28 -24 66
-14 54 -22 69 -36 69 -17 0 -17 -6 9 -82z"/>
<path d="M3690 35 c0 -8 7 -15 15 -15 8 0 15 7 15 15 0 8 -7 15 -15 15 -8 0
-15 -7 -15 -15z"/>
<path d="M4440 35 c0 -8 9 -15 20 -15 11 0 20 7 20 15 0 8 -9 15 -20 15 -11 0
-20 -7 -20 -15z"/>
</g>
</svg>
